<?xml version="1.0" encoding="utf-8"?>
<!-- Generator: Adobe Illustrator 17.1.0, SVG Export Plug-In . SVG Version: 6.00 Build 0)  -->
<!DOCTYPE svg PUBLIC "-//W3C//DTD SVG 1.1//EN" "http://www.w3.org/Graphics/SVG/1.1/DTD/svg11.dtd">
<svg version="1.1" id="Layer_1" xmlns="http://www.w3.org/2000/svg" xmlns:xlink="http://www.w3.org/1999/xlink" x="0px" y="0px"
	 viewBox="0 0 195 127" enable-background="new 0 0 195 127" xml:space="preserve">
<polygon fill="#00A79C" points="194.582,63.291 131.467,0.176 131.467,25.442 0.196,25.442 0.196,101.14 131.467,101.14 
	131.467,126.406 "/>
<g>
	<path fill="#FFFFFF" d="M35.951,51.193c3.016,0,5.325,0.985,6.928,2.955c1.602,1.97,2.403,4.896,2.403,8.78V80.6h-5.231V65.048
		c0-1.772-0.118-3.233-0.353-4.383c-0.236-1.15-0.585-2.06-1.046-2.729c-0.462-0.669-1.046-1.135-1.753-1.4
		c-0.707-0.264-1.541-0.396-2.502-0.396c-1.018,0-2.012,0.24-2.983,0.721c-0.971,0.481-1.862,1.103-2.672,1.866
		c-0.811,0.763-1.527,1.626-2.149,2.587c-0.622,0.961-1.084,1.923-1.386,2.884v16.4h-5.231V63.21c0-2.79-0.156-5.151-0.467-7.083
		c-0.311-1.932-0.627-3.389-0.947-4.369h5.09c0.113,0.301,0.226,0.693,0.339,1.173c0.113,0.481,0.216,0.985,0.311,1.513
		c0.094,0.528,0.179,1.046,0.254,1.555l0.226,1.272c1.791-2.149,3.6-3.7,5.429-4.651C32.039,51.669,33.952,51.193,35.951,51.193z"/>
	<path fill="#FFFFFF" d="M65.386,51.193c1.545,0,2.912,0.184,4.1,0.551s2.215,0.877,3.082,1.527c0.867,0.65,1.593,1.409,2.177,2.276
		c0.584,0.867,1.051,1.8,1.4,2.799c0.349,0.999,0.598,2.04,0.749,3.125s0.226,2.153,0.226,3.209v1.103
		c0,0.471-0.01,0.839-0.028,1.103H57.044c0.057,1.659,0.315,3.101,0.778,4.326c0.462,1.226,1.093,2.238,1.894,3.04
		c0.801,0.801,1.743,1.4,2.828,1.796c1.084,0.396,2.267,0.594,3.549,0.594c1.828,0,3.619-0.208,5.372-0.622
		c1.753-0.414,3.497-1.15,5.231-2.206l0.566,4.666c-0.999,0.509-1.979,0.943-2.941,1.301c-0.961,0.358-1.923,0.65-2.884,0.877
		c-0.961,0.226-1.937,0.391-2.927,0.495s-2.031,0.156-3.124,0.156c-1.81,0-3.535-0.315-5.175-0.947
		c-1.64-0.632-3.082-1.565-4.326-2.799c-1.244-1.234-2.234-2.767-2.969-4.595c-0.735-1.828-1.103-3.949-1.103-6.362
		c0-2.337,0.315-4.453,0.947-6.348c0.631-1.894,1.531-3.516,2.7-4.863c1.169-1.348,2.592-2.385,4.27-3.11
		C61.408,51.556,63.293,51.193,65.386,51.193z M64.962,55.434c-2.074,0-3.77,0.608-5.09,1.824c-1.32,1.216-2.187,3.106-2.601,5.669
		h14.76c0-1.206-0.175-2.276-0.523-3.209c-0.349-0.933-0.839-1.72-1.47-2.361c-0.632-0.641-1.381-1.121-2.248-1.442
		C66.922,55.594,65.98,55.434,64.962,55.434z"/>
	<path fill="#FFFFFF" d="M95.245,69.968L87.865,80.6h-6.362c0.773-1.018,1.424-1.871,1.951-2.559c0.528-0.688,0.994-1.305,1.4-1.852
		c0.406-0.547,0.782-1.065,1.131-1.555c0.349-0.49,0.74-1.046,1.173-1.668l5.033-7.295l-4.468-6.277
		c-0.471-0.66-0.905-1.254-1.301-1.781c-0.396-0.528-0.81-1.065-1.244-1.612c-0.434-0.547-0.919-1.155-1.456-1.824
		c-0.537-0.669-1.183-1.475-1.937-2.418h6.503l7.352,10.208l6.928-10.208h6.362c-0.735,0.943-1.357,1.749-1.866,2.418
		c-0.509,0.669-0.971,1.282-1.386,1.838c-0.414,0.556-0.806,1.098-1.173,1.626c-0.368,0.528-0.778,1.112-1.23,1.753l-4.609,6.786
		l4.892,6.786c0.509,0.717,0.952,1.325,1.329,1.824c0.377,0.499,0.773,1.014,1.188,1.541c0.414,0.528,0.872,1.121,1.371,1.781
		c0.499,0.66,1.135,1.489,1.909,2.488h-6.503L95.245,69.968z"/>
	<path fill="#FFFFFF" d="M111.617,52.465h5.655v-9.19h5.231v9.19h9.19v4.1h-9.19v13.007c0,1.452,0.071,2.639,0.212,3.563
		c0.141,0.923,0.358,1.644,0.65,2.163c0.292,0.519,0.664,0.872,1.117,1.06s0.999,0.283,1.64,0.283c0.81,0,1.725-0.179,2.743-0.537
		c1.018-0.358,2.149-0.886,3.393-1.583v4.524c-1.301,0.848-2.545,1.438-3.732,1.767c-1.188,0.33-2.281,0.495-3.28,0.495
		c-1.112,0-2.149-0.127-3.11-0.382c-0.961-0.254-1.805-0.702-2.531-1.343c-0.725-0.641-1.296-1.494-1.711-2.559
		c-0.414-1.065-0.622-2.418-0.622-4.058v-16.4h-5.655V52.465z"/>
</g>
</svg>
