<?xml version="1.0" encoding="utf-8"?>
<!-- Generator: Adobe Illustrator 17.1.0, SVG Export Plug-In . SVG Version: 6.00 Build 0)  -->
<!DOCTYPE svg PUBLIC "-//W3C//DTD SVG 1.1//EN" "http://www.w3.org/Graphics/SVG/1.1/DTD/svg11.dtd">
<svg version="1.1" id="Layer_1" xmlns="http://www.w3.org/2000/svg" xmlns:xlink="http://www.w3.org/1999/xlink" x="0px" y="0px"
	 viewBox="0 0 612 792" enable-background="new 0 0 612 792" xml:space="preserve">
<g>
	<circle fill="#70C9C3" cx="305.812" cy="394.211" r="304.046"/>
	<g>
		<path fill="none" d="M292.348,272.658c0-19.419-7.65-32.248-23.374-39.239c-8.78-3.931-20.784-5.932-35.684-5.932
			c-13.134,0-16.124,1.224-16.477,1.412c0.094,0-0.8,1.295-0.8,5.743v86.598c23.115-1.13,39.945-3.743,50.043-7.791
			C283.733,306.224,292.348,292.854,292.348,272.658z"/>
		<path fill="#333333" d="M473.005,568.349c-8.992-1.365-15.771-3.366-20.149-5.932c-3.013-1.765-8.403-6.591-17.207-19.49
			l-68.897-99.756l51.69-64.848c12.311-15.182,22.644-25.092,30.553-29.447c4.684-2.495,11.652-3.884,20.737-4.096l5.743-0.141
			V326.02H374.473v18.666l5.814,0.071c10.498,0.141,14.664,1.012,16.171,1.506c2.942,1.012,4.049,2.495,4.049,5.461
			c0,1.271-0.494,2.919-1.412,4.778c-2.024,4.143-6.002,9.816-11.863,16.877l-39.309,47.783l-65.908-81.184
			c17.395-3.79,31.73-10.263,42.675-19.278c13.558-11.157,20.431-27.21,20.431-47.712c0-30.482-15.159-51.69-44.982-63.012
			c-15.112-5.743-34.06-8.639-56.375-8.639h-110.16v18.289l5.39,0.447c16.43,1.342,21.302,4.684,22.644,6.049
			c1.295,1.342,4.331,6.167,4.331,21.938v163.169c0,19.231-2.778,24.645-3.978,26.057c-0.871,1.059-5.178,4.661-23.044,6.332
			l-5.343,0.494v18.242h116.421v-18.289l-5.39-0.471c-16.901-1.459-22.456-4.378-24.292-5.979
			c-1.012-0.894-4.355-5.155-4.355-22.079v-68.685l7.98-0.447l92.694,114.185l-53.762,66.52
			c-18.948,23.444-26.975,31.659-30.341,34.413c-4.308,3.484-11.016,5.743-19.89,6.685l-5.273,0.565v18.148h98.673v-18.384
			l-5.484-0.353c-10.498-0.706-15.394-1.789-17.701-2.613c-5.508-1.93-5.508-4.425-5.508-5.79c0-0.282,0.141-2.801,4.967-10.051
			c2.519-3.695,6.944-9.557,13.252-17.583l39.239-49.266c22.409,32.93,36.414,53.974,41.663,62.542
			c6.967,11.369,7.509,15.559,7.509,16.571c0,2.166-0.565,3.036-2.472,3.766c-2.448,0.918-7.932,2.095-20.29,2.401l-5.743,0.141
			v18.619h122.494v-17.936L473.005,568.349z M216.012,321.242v-86.574c0-4.449,0.894-5.743,0.8-5.743
			c0.377-0.188,3.366-1.412,16.477-1.412c14.9,0,26.904,1.977,35.684,5.932c15.724,6.967,23.374,19.796,23.374,39.215
			c0,20.196-8.615,33.566-26.292,40.816C255.981,317.499,239.151,320.112,216.012,321.242z"/>
	</g>
</g>
</svg>
