<?xml version="1.0" encoding="utf-8"?>
<!-- Generator: Adobe Illustrator 17.1.0, SVG Export Plug-In . SVG Version: 6.00 Build 0)  -->
<!DOCTYPE svg PUBLIC "-//W3C//DTD SVG 1.1//EN" "http://www.w3.org/Graphics/SVG/1.1/DTD/svg11.dtd">
<svg version="1.1" id="Layer_1" xmlns="http://www.w3.org/2000/svg" xmlns:xlink="http://www.w3.org/1999/xlink" x="0px" y="0px"
	 viewBox="0 0 26 26" enable-background="new 0 0 26 26" xml:space="preserve">
<g>
	<circle fill="#FFFFFF" cx="12.992" cy="12.924" r="12.917"/>
	<g>
		<path fill="none" d="M12.42,7.76c0-0.825-0.325-1.37-0.993-1.667c-0.373-0.167-0.883-0.252-1.516-0.252
			c-0.558,0-0.685,0.052-0.7,0.06c0.004,0-0.034,0.055-0.034,0.244v3.679c0.982-0.048,1.697-0.159,2.126-0.331
			C12.054,9.186,12.42,8.618,12.42,7.76z"/>
		<path fill="#595A5C" d="M18.095,19.524l-3.138-4.542l2.43-3.047c0.574-0.707,1.048-1.156,1.45-1.377
			c0.02-0.01,0.04-0.021,0.062-0.031h-1.675c0.189,0.135,0.29,0.339,0.29,0.594c0,0.132-0.037,0.275-0.111,0.423
			c-0.104,0.213-0.289,0.48-0.566,0.815l-2.051,2.511l-3.734-4.599l0.433-0.065c0.841-0.128,1.512-0.393,1.992-0.789
			c0.462-0.38,0.687-0.917,0.687-1.641c0-1.081-0.52-1.804-1.589-2.209c-0.584-0.222-1.33-0.335-2.217-0.335H6.92
			c0.128,0.057,0.229,0.125,0.308,0.205c0.222,0.229,0.324,0.636,0.324,1.28v6.932c0,0.741-0.091,1.194-0.284,1.428
			c-0.082,0.098-0.199,0.179-0.356,0.245H9.33c-0.124-0.05-0.223-0.108-0.299-0.176c-0.241-0.213-0.354-0.63-0.354-1.312v-3.391
			l1.065-0.06l4.354,5.364l-2.538,3.141c-0.677,0.838-1.123,1.34-1.362,1.535c-0.091,0.074-0.195,0.138-0.313,0.192h1.819
			c-0.358-0.186-0.417-0.481-0.417-0.653c0-0.179,0.095-0.403,0.297-0.706c0.113-0.165,0.307-0.424,0.586-0.778l2.09-2.624
			l0.191,0.28c1.068,1.567,1.732,2.562,1.973,2.958c0.269,0.437,0.394,0.744,0.394,0.965c0,0.245-0.102,0.438-0.29,0.559h2.696
			c-0.088-0.035-0.167-0.073-0.238-0.115C18.732,20.35,18.441,20.032,18.095,19.524z M8.936,10.335l-0.259,0.009V6.146
			c0-0.334,0.088-0.552,0.268-0.667c0.106-0.068,0.304-0.137,0.967-0.137c0.704,0,1.282,0.099,1.72,0.295
			c0.855,0.38,1.289,1.094,1.289,2.123c0,1.069-0.481,1.809-1.43,2.197C10.962,10.169,10.128,10.292,8.936,10.335z"/>
		<path fill="#333333" d="M20.095,20.322c-0.382-0.058-0.67-0.143-0.856-0.252c-0.128-0.075-0.357-0.28-0.731-0.828l-2.927-4.238
			l2.196-2.755c0.523-0.645,0.962-1.066,1.298-1.251c0.199-0.106,0.495-0.165,0.881-0.174l0.244-0.006v-0.791h-4.291v0.793
			l0.247,0.003c0.446,0.006,0.623,0.043,0.687,0.064c0.125,0.043,0.172,0.106,0.172,0.232c0,0.054-0.021,0.124-0.06,0.203
			c-0.086,0.176-0.255,0.417-0.504,0.717l-1.67,2.03l-2.8-3.449c0.739-0.161,1.348-0.436,1.813-0.819
			c0.576-0.474,0.868-1.156,0.868-2.027c0-1.295-0.644-2.196-1.911-2.677c-0.642-0.244-1.447-0.367-2.395-0.367H5.676v0.777
			l0.229,0.019c0.698,0.057,0.905,0.199,0.962,0.257c0.055,0.057,0.184,0.262,0.184,0.932v6.932c0,0.817-0.118,1.047-0.169,1.107
			c-0.037,0.045-0.22,0.198-0.979,0.269l-0.227,0.021v0.775h4.946v-0.777l-0.229-0.02c-0.718-0.062-0.954-0.186-1.032-0.254
			c-0.043-0.038-0.185-0.219-0.185-0.938v-2.918l0.339-0.019l3.938,4.851l-2.284,2.826c-0.805,0.996-1.146,1.345-1.289,1.462
			c-0.183,0.148-0.468,0.244-0.845,0.284l-0.224,0.024v0.771h4.192v-0.781l-0.233-0.015c-0.446-0.03-0.654-0.076-0.752-0.111
			c-0.234-0.082-0.234-0.188-0.234-0.246c0-0.012,0.006-0.119,0.211-0.427c0.107-0.157,0.295-0.406,0.563-0.747l1.667-2.093
			c0.952,1.399,1.547,2.293,1.77,2.657c0.296,0.483,0.319,0.661,0.319,0.704c0,0.092-0.024,0.129-0.105,0.16
			c-0.104,0.039-0.337,0.089-0.862,0.102l-0.244,0.006v0.791h5.204v-0.762L20.095,20.322z M16.526,20.616
			c0.188-0.12,0.29-0.313,0.29-0.559c0-0.221-0.125-0.528-0.394-0.965c-0.24-0.396-0.904-1.391-1.973-2.958l-0.191-0.28l-2.09,2.624
			c-0.279,0.354-0.473,0.613-0.586,0.778c-0.202,0.303-0.297,0.527-0.297,0.706c0,0.172,0.059,0.468,0.417,0.653H9.883
			c0.118-0.055,0.223-0.118,0.313-0.192c0.239-0.195,0.686-0.697,1.362-1.535l2.538-3.141l-4.354-5.364l-1.065,0.06v3.391
			c0,0.683,0.112,1.1,0.354,1.312c0.076,0.067,0.175,0.126,0.299,0.176H6.911c0.157-0.066,0.274-0.147,0.356-0.245
			c0.193-0.233,0.284-0.687,0.284-1.428V6.717c0-0.644-0.103-1.051-0.324-1.28c-0.078-0.08-0.18-0.148-0.308-0.205h3.437
			c0.887,0,1.633,0.113,2.217,0.335c1.069,0.405,1.589,1.128,1.589,2.209c0,0.724-0.225,1.261-0.687,1.641
			c-0.48,0.396-1.151,0.661-1.992,0.789l-0.433,0.065l3.734,4.599l2.051-2.511c0.277-0.334,0.463-0.602,0.566-0.815
			c0.074-0.148,0.111-0.291,0.111-0.423c0-0.255-0.101-0.459-0.29-0.594h1.675c-0.021,0.01-0.042,0.021-0.062,0.031
			c-0.402,0.221-0.876,0.671-1.45,1.377l-2.43,3.047l3.138,4.542c0.346,0.508,0.637,0.826,0.889,0.977
			c0.071,0.042,0.15,0.08,0.238,0.115H16.526z"/>
		<path fill="#333333" d="M12.92,7.76c0-1.029-0.434-1.743-1.289-2.123c-0.438-0.196-1.016-0.295-1.72-0.295
			c-0.663,0-0.86,0.069-0.967,0.137c-0.18,0.115-0.268,0.333-0.268,0.667v4.199l0.259-0.009c1.191-0.043,2.026-0.167,2.555-0.378
			C12.439,9.568,12.92,8.829,12.92,7.76z M9.177,9.824V6.146c0-0.189,0.038-0.244,0.034-0.244c0.016-0.008,0.143-0.06,0.7-0.06
			c0.633,0,1.143,0.084,1.516,0.252C12.095,6.39,12.42,6.935,12.42,7.76c0,0.858-0.366,1.426-1.117,1.734
			C10.875,9.665,10.16,9.776,9.177,9.824z"/>
	</g>
</g>
</svg>
