<?xml version="1.0" encoding="utf-8"?>
<!-- Generator: Adobe Illustrator 17.1.0, SVG Export Plug-In . SVG Version: 6.00 Build 0)  -->
<!DOCTYPE svg PUBLIC "-//W3C//DTD SVG 1.1//EN" "http://www.w3.org/Graphics/SVG/1.1/DTD/svg11.dtd">
<svg version="1.1" id="Layer_1" xmlns="http://www.w3.org/2000/svg" xmlns:xlink="http://www.w3.org/1999/xlink" x="0px" y="0px"
	 viewBox="0 90 612 612" enable-background="new 0 90 612 612" xml:space="preserve">
<g>
	<circle fill="#FFFFFF" cx="305.812" cy="394.211" r="304.046"/>
</g>
<g id="tV5OkX.tif">
	<g>
		<path fill="#333333" d="M452.072,201.337c11.457,2.626,19.343,10.424,27.031,18.561c3.88,4.106,8.018,7.967,11.908,12.063
			c11.707,12.325,13.246,31.857,1.897,44.37c-12.03,13.263-25.545,25.181-38.173,37.455c-22.031-22.01-44.557-44.514-67.335-67.27
			c-0.046,0.076,0.148-0.459,0.513-0.824c11.772-11.791,23.199-23.966,35.532-35.14c4.697-4.256,11.479-6.211,17.311-9.215
			C444.528,201.337,448.3,201.337,452.072,201.337z"/>
		<path fill="#333333" d="M111.857,579.994c4.893-12.027,9.855-24.026,14.664-36.087c7.882-19.77,15.663-39.581,23.491-59.372
			c0.468-1.183,0.974-2.351,1.306-3.15c22.421,22.45,44.81,44.868,67.275,67.362c-0.369,0.178-1.432,0.774-2.555,1.219
			c-30.821,12.223-61.649,24.429-92.474,36.643c-3.987,1.58-7.949,2.906-11.706-0.522
			C111.857,584.056,111.857,582.025,111.857,579.994z"/>
		<path fill="#333333" d="M225.254,540.5c-22.352-22.368-44.79-44.823-66.855-66.903c72.926-72.935,145.971-145.989,218.837-218.864
			c22.057,22.118,44.561,44.682,66.787,66.97C371.385,394.35,298.305,467.439,225.254,540.5z"/>
	</g>
</g>
</svg>
