<?xml version="1.0" encoding="utf-8"?>
<!-- Generator: Adobe Illustrator 17.1.0, SVG Export Plug-In . SVG Version: 6.00 Build 0)  -->
<!DOCTYPE svg PUBLIC "-//W3C//DTD SVG 1.1//EN" "http://www.w3.org/Graphics/SVG/1.1/DTD/svg11.dtd">
<svg version="1.1" id="Layer_1" xmlns="http://www.w3.org/2000/svg" xmlns:xlink="http://www.w3.org/1999/xlink" x="0px" y="0px"
	 viewBox="0 0 26 26" enable-background="new 0 0 26 26" xml:space="preserve">
<g>
	<circle fill="#FFFFFF" cx="12.889" cy="12.924" r="12.917"/>
	<g>
		<g>
			<path fill-rule="evenodd" clip-rule="evenodd" fill="#58595B" d="M21.782,12.313H21.74V11.97h-0.043
				c-0.014-0.057-0.029-0.114-0.043-0.171h-0.043l-0.214-0.257c-0.071-0.014-0.143-0.029-0.214-0.043v-0.043
				c-0.143-0.014-0.285-0.029-0.428-0.043v-0.043h-0.3v-0.043h-0.257v-0.043h-0.214v-0.043c-0.179-0.054-0.353,0.017-0.471-0.086
				H19.47c-0.029-0.143-0.057-0.285-0.086-0.428h-0.043V10.6h-0.043c-0.014-0.086-0.029-0.171-0.043-0.257h-0.043
				c-0.014-0.057-0.029-0.114-0.043-0.171h-0.043v-0.086h-0.043c-0.014-0.071-0.029-0.143-0.043-0.214
				c-0.069-0.131-0.181-0.213-0.214-0.385h-0.043c-0.01-0.033,0.108-0.23,0.128-0.257h0.043V9.144
				c0.043-0.029,0.086-0.057,0.128-0.086V8.973c0.029-0.014,0.057-0.029,0.086-0.043V8.845c0.043-0.029,0.086-0.057,0.128-0.086
				V8.673c0.029-0.014,0.057-0.029,0.086-0.043V8.545c0.043-0.029,0.086-0.057,0.128-0.086V8.374
				c0.029-0.014,0.057-0.029,0.086-0.043V8.245c0.043-0.029,0.086-0.057,0.128-0.086V8.074h0.043
				c0.014-0.057,0.029-0.114,0.043-0.171h0.043V7.432c-0.123-0.343-0.568-0.653-0.813-0.899c-0.128-0.143-0.257-0.285-0.385-0.428
				c-0.099-0.07-0.219-0.08-0.3-0.171h-0.471v0.043c-0.057,0.014-0.114,0.029-0.171,0.043v0.043h-0.086
				c-0.029,0.043-0.057,0.086-0.086,0.128h-0.086c-0.014,0.029-0.029,0.057-0.043,0.086h-0.086
				c-0.014,0.029-0.029,0.057-0.043,0.086h-0.086c-0.029,0.043-0.057,0.086-0.086,0.128H17.03c-0.014,0.029-0.029,0.057-0.043,0.086
				h-0.086c-0.029,0.043-0.057,0.086-0.086,0.128H16.73c-0.014,0.029-0.029,0.057-0.043,0.086h-0.086
				c-0.029,0.043-0.057,0.086-0.086,0.128H16.43c-0.014,0.029-0.029,0.057-0.043,0.086c-0.093,0.027-0.4-0.22-0.471-0.257
				l-0.214-0.043V6.661h-0.086V6.618c-0.057-0.014-0.114-0.029-0.171-0.043V6.533c-0.285-0.086-0.571-0.171-0.856-0.257
				c-0.006-0.161-0.052-0.309-0.086-0.428v-0.3h-0.043V5.334h-0.043V5.077h-0.043V4.82h-0.043V4.606H14.29l-0.043-0.214
				c-0.029-0.014-0.057-0.029-0.086-0.043c-0.014-0.043-0.029-0.086-0.043-0.128c-0.275-0.217-0.747-0.214-1.242-0.214
				c-0.369,0-0.947-0.02-1.113,0.171c-0.422,0.112-0.422,1.224-0.557,1.67c-0.053,0.177,0.021,0.306-0.086,0.428v0.043
				c-0.143,0.029-0.285,0.057-0.428,0.086v0.043h-0.128V6.49c-0.086,0.014-0.171,0.029-0.257,0.043v0.043
				c-0.057,0.014-0.114,0.029-0.171,0.043v0.043h-0.128v0.043H9.922v0.043H9.837c-0.13,0.07-0.214,0.181-0.385,0.214v0.043
				C9.35,7.034,9.197,6.821,9.152,6.79H9.066C9.052,6.761,9.038,6.732,9.023,6.704H8.938C8.923,6.675,8.909,6.647,8.895,6.618H8.809
				C8.781,6.576,8.752,6.533,8.724,6.49H8.638C8.609,6.447,8.581,6.404,8.552,6.361H8.467C8.452,6.333,8.438,6.304,8.424,6.276
				C8.381,6.261,8.338,6.247,8.295,6.233V6.19H8.21C8.181,6.147,8.153,6.104,8.124,6.062H8.039V6.019
				C7.981,6.005,7.924,5.99,7.867,5.976V5.933H7.396v0.043H7.311v0.043H7.225C7.211,6.047,7.197,6.076,7.182,6.104H7.097
				C6.968,6.247,6.84,6.39,6.711,6.533H6.626v0.043C6.569,6.618,6.511,6.661,6.454,6.704V6.79C6.326,6.904,6.197,7.018,6.069,7.132
				c-0.07,0.099-0.08,0.219-0.171,0.3v0.471h0.043C5.955,7.96,5.969,8.017,5.983,8.074h0.043V8.16
				c0.043,0.029,0.086,0.057,0.128,0.086v0.086C6.183,8.345,6.212,8.359,6.24,8.374v0.086c0.043,0.029,0.086,0.057,0.128,0.086
				v0.086c0.029,0.014,0.057,0.029,0.086,0.043v0.086C6.497,8.788,6.54,8.816,6.583,8.845V8.93C6.611,8.945,6.64,8.959,6.668,8.973
				v0.086c0.029,0.014,0.057,0.029,0.086,0.043c0.078,0.115,0.099,0.224,0.214,0.3C6.932,9.555,6.869,9.658,6.797,9.787H6.754
				c-0.043,0.128-0.086,0.257-0.128,0.385H6.583v0.086H6.54v0.128c-0.093,0.21-0.249,0.476-0.257,0.771
				c-0.358,0.133-0.875,0.145-1.242,0.257H4.827v0.043c-0.173,0.052-0.329-0.002-0.471,0.086c-0.014,0.029-0.029,0.057-0.043,0.086
				H4.228c-0.014,0.043-0.029,0.086-0.043,0.128C4.157,11.77,4.128,11.785,4.1,11.799c-0.014,0.057-0.029,0.114-0.043,0.171H4.014
				C4,12.27,3.985,12.57,3.971,12.869v0.685h0.043v0.3c0.036,0.098,0.137,0.164,0.171,0.3c0.096,0.027,0.106,0.036,0.171,0.086
				v0.043c0.071,0.014,0.143,0.029,0.214,0.043v0.043c0.557,0.086,1.113,0.171,1.67,0.257c0.076,0.367,0.25,0.722,0.385,1.028v0.128
				h0.043c0.093,0.191,0.152,0.425,0.3,0.557c-0.014,0.043-0.029,0.086-0.043,0.128H6.883c-0.014,0.043-0.029,0.086-0.043,0.128
				c-0.029,0.014-0.057,0.029-0.086,0.043v0.086c-0.029,0.014-0.057,0.029-0.086,0.043v0.086c-0.043,0.029-0.086,0.057-0.128,0.086
				v0.086c-0.029,0.014-0.057,0.029-0.086,0.043v0.086c-0.043,0.029-0.086,0.057-0.128,0.086v0.086
				c-0.029,0.014-0.057,0.029-0.086,0.043v0.086c-0.029,0.014-0.057,0.029-0.086,0.043v0.086c-0.043,0.029-0.086,0.057-0.128,0.086
				v0.086H5.983c-0.014,0.057-0.029,0.114-0.043,0.171H5.898c-0.062,0.17,0.036,0.566,0.086,0.642
				c0.043,0.029,0.086,0.057,0.128,0.086c0.225,0.319,0.461,0.504,0.728,0.771l0.214,0.257c0.108,0.077,0.257,0.118,0.343,0.214
				h0.471v-0.043h0.128c0.014-0.029,0.029-0.057,0.043-0.086h0.086c0.029-0.043,0.057-0.086,0.086-0.128h0.086
				c0.014-0.029,0.029-0.057,0.043-0.086h0.086c0.029-0.043,0.057-0.086,0.086-0.128h0.086c0.014-0.029,0.029-0.057,0.043-0.086
				h0.086c0.029-0.043,0.057-0.086,0.086-0.128h0.086c0.014-0.029,0.029-0.057,0.043-0.086h0.086
				c0.029-0.043,0.057-0.086,0.086-0.128c0.039-0.027,0.311-0.177,0.343-0.171v0.043c0.057,0.014,0.114,0.029,0.171,0.043
				c0.014,0.029,0.029,0.057,0.043,0.086h0.086v0.043h0.086v0.043h0.128c0.014,0.029,0.029,0.057,0.043,0.086h0.128v0.043h0.086
				v0.043c0.071,0.014,0.143,0.029,0.214,0.043v0.043c0.243,0.071,0.485,0.143,0.728,0.214c0.014,0.157,0.029,0.314,0.043,0.471
				h0.043v0.214c0.068,0.222,0.103,0.549,0.171,0.771c0.05,0.162-0.02,0.233,0.086,0.343v0.086l0.257,0.214v0.043
				c0.057,0.014,0.114,0.029,0.171,0.043v0.043h0.343c0.149,0.043,0.992,0.1,1.199,0.043v-0.043h0.343v-0.043h0.086v-0.043h0.086
				v-0.043c0.043-0.014,0.086-0.029,0.128-0.043c0.027-0.096,0.036-0.106,0.086-0.171h0.043l0.043-0.214h0.043v-0.214h0.043v-0.257
				h0.043V20.49h0.043v-0.214h0.043v-0.3h0.043c0.052-0.176-0.021-0.308,0.086-0.428v-0.043c0.143-0.029,0.285-0.057,0.428-0.086
				v-0.043c0.086-0.014,0.171-0.029,0.257-0.043v-0.043h0.086v-0.043h0.128v-0.043h0.086v-0.043h0.128
				c0.014-0.029,0.029-0.057,0.043-0.086c0.071-0.014,0.143-0.029,0.214-0.043c0.014-0.029,0.029-0.057,0.043-0.086
				c0.03-0.018,0.324-0.134,0.343-0.128c0.014,0.029,0.029,0.057,0.043,0.086h0.086c0.029,0.043,0.057,0.086,0.086,0.128h0.086
				v0.043c0.043,0.014,0.086,0.029,0.128,0.043c0.014,0.029,0.029,0.057,0.043,0.086h0.086c0.029,0.043,0.057,0.086,0.086,0.128
				h0.086c0.014,0.029,0.029,0.057,0.043,0.086h0.086c0.029,0.043,0.057,0.086,0.086,0.128h0.086
				c0.014,0.029,0.029,0.057,0.043,0.086h0.086c0.029,0.043,0.057,0.086,0.086,0.128c0.097,0.064,0.51,0.207,0.728,0.128v-0.043
				c0.057-0.014,0.114-0.029,0.171-0.043c0.029-0.043,0.057-0.086,0.086-0.128H18.7c0.185-0.2,0.371-0.4,0.557-0.599
				c0.128-0.114,0.257-0.228,0.385-0.343c0.076-0.106,0.118-0.26,0.214-0.343v-0.471h-0.043c-0.014-0.057-0.029-0.114-0.043-0.171
				h-0.043v-0.086c-0.029-0.014-0.057-0.029-0.086-0.043v-0.086c-0.043-0.029-0.086-0.057-0.128-0.086v-0.086
				c-0.043-0.029-0.086-0.057-0.128-0.086v-0.086c-0.029-0.014-0.057-0.029-0.086-0.043v-0.086
				c-0.043-0.029-0.086-0.057-0.128-0.086v-0.086c-0.056-0.082-0.404-0.457-0.385-0.557h0.043c0.014-0.057,0.029-0.114,0.043-0.171
				c0.029-0.014,0.057-0.029,0.086-0.043c0.043-0.128,0.086-0.257,0.128-0.385h0.043v-0.086h0.043
				c0.014-0.057,0.029-0.114,0.043-0.171h0.043c0.086-0.285,0.171-0.571,0.257-0.856c0.143-0.014,0.285-0.029,0.428-0.043
				c0.295-0.087,0.688-0.126,0.985-0.214c0.179-0.053,0.265,0.03,0.385-0.086h0.086c0.071-0.086,0.143-0.171,0.214-0.257h0.043
				c0.014-0.057,0.029-0.114,0.043-0.171h0.043v-0.343C21.782,13.362,21.84,12.519,21.782,12.313z M16.302,13.169h-0.043v0.385
				h-0.043v0.171h-0.043v0.171h-0.043v0.128h-0.043v0.128h-0.043c-0.014,0.057-0.029,0.114-0.043,0.171h-0.043v0.086h-0.043v0.086
				h-0.043v0.086l-0.086,0.086v0.086c-0.029,0.014-0.057,0.029-0.086,0.043v0.086c-0.043,0.029-0.086,0.057-0.128,0.086v0.086
				c-0.071,0.057-0.143,0.114-0.214,0.171c-0.114,0.128-0.228,0.257-0.343,0.385h-0.086c-0.029,0.043-0.057,0.086-0.086,0.128
				h-0.086c-0.014,0.029-0.029,0.057-0.043,0.086c-0.086,0.029-0.171,0.057-0.257,0.086v0.043h-0.086v0.043
				c-0.086,0.029-0.171,0.057-0.257,0.086v0.043c-0.143,0.029-0.285,0.057-0.428,0.086c-0.48,0.162-1.15,0.158-1.627,0h-0.171
				v-0.043c-0.086-0.014-0.171-0.029-0.257-0.043v-0.043h-0.086v-0.043h-0.128v-0.043h-0.086v-0.043H11.25
				c-0.014-0.029-0.029-0.057-0.043-0.086c-0.057-0.014-0.114-0.029-0.171-0.043c-0.014-0.029-0.029-0.057-0.043-0.086h-0.086
				c-0.029-0.043-0.057-0.086-0.086-0.128h-0.086l-0.257-0.3c-0.1-0.086-0.2-0.171-0.3-0.257v-0.086
				c-0.043-0.029-0.086-0.057-0.128-0.086v-0.086c-0.029-0.014-0.057-0.029-0.086-0.043c-0.029-0.086-0.057-0.171-0.086-0.257
				c-0.029-0.014-0.057-0.029-0.086-0.043c-0.014-0.071-0.029-0.143-0.043-0.214H9.708v-0.086H9.666
				c-0.014-0.086-0.029-0.171-0.043-0.257H9.58v-0.171H9.537v-0.171H9.494v-0.385H9.451c0.014-0.285,0.029-0.571,0.043-0.856
				c0.086-0.285,0.171-0.571,0.257-0.856h0.043v-0.086h0.043v-0.086c0.029-0.014,0.057-0.029,0.086-0.043
				c0.014-0.057,0.029-0.114,0.043-0.171c0.029-0.014,0.057-0.029,0.086-0.043v-0.086c0.043-0.029,0.086-0.057,0.128-0.086
				c0.415-0.586,0.975-0.98,1.713-1.242c0.128-0.014,0.257-0.029,0.385-0.043c0.552-0.167,1.26-0.051,1.713,0.128h0.128v0.043h0.086
				v0.043l0.214,0.043c0.014,0.029,0.029,0.057,0.043,0.086c0.086,0.029,0.171,0.057,0.257,0.086v0.043
				c0.043,0.014,0.086,0.029,0.128,0.043c0.014,0.029,0.029,0.057,0.043,0.086h0.086v0.043c0.098,0.082,0.159,0.175,0.3,0.214v0.086
				h0.086c0.04,0.141,0.132,0.201,0.214,0.3h0.043V10.9c0.029,0.014,0.057,0.029,0.086,0.043v0.086
				c0.029,0.014,0.057,0.029,0.086,0.043c0.014,0.057,0.029,0.114,0.043,0.171c0.029,0.014,0.057,0.029,0.086,0.043v0.086h0.043
				v0.086h0.043v0.128h0.043v0.086h0.043v0.128h0.043v0.128h0.043v0.171h0.043v0.171h0.043v0.3h0.043V13.169z"/>
		</g>
	</g>
</g>
</svg>
