<?xml version="1.0" encoding="utf-8"?>
<!-- Generator: Adobe Illustrator 17.1.0, SVG Export Plug-In . SVG Version: 6.00 Build 0)  -->
<!DOCTYPE svg PUBLIC "-//W3C//DTD SVG 1.1//EN" "http://www.w3.org/Graphics/SVG/1.1/DTD/svg11.dtd">
<svg version="1.1" id="Layer_1" xmlns="http://www.w3.org/2000/svg" xmlns:xlink="http://www.w3.org/1999/xlink" x="0px" y="0px"
	 viewBox="0 0 792 612" enable-background="new 0 0 792 612" xml:space="preserve">
<g>
	<path fill="#FFFFFF" d="M169.352,358.112v-37.654c0-6.041-0.336-11.152-1.01-15.337c-0.673-4.184-1.357-7.337-2.052-9.46h11.021
		c0.49,1.144,0.929,2.582,1.317,4.317c0.387,1.735,0.714,3.663,0.98,5.785c0.264,2.123,0.459,4.389,0.581,6.796
		c0.122,2.409,0.184,4.837,0.184,7.286v3.98c2.082-5.755,4.123-10.52,6.123-14.296c2-3.775,3.99-6.786,5.97-9.031
		c1.979-2.245,3.969-3.816,5.969-4.714c2-0.898,4.041-1.347,6.123-1.347c1.551,0,2.979,0.143,4.286,0.429
		c1.307,0.287,2.633,0.756,3.98,1.408l-1.837,11.327c-1.184-0.49-2.225-0.815-3.123-0.98c-0.898-0.163-2-0.245-3.306-0.245
		c-1.674,0-3.429,0.705-5.265,2.113s-3.642,3.275-5.418,5.602c-1.776,2.327-3.46,4.959-5.052,7.898
		c-1.592,2.939-2.99,5.949-4.193,9.032c-1.205,3.082-2.164,6.091-2.878,9.03c-0.715,2.939-1.072,5.552-1.072,7.837
		c0,1.021,0.01,1.959,0.031,2.816c0.02,0.857,0.081,1.684,0.184,2.48c0.102,0.796,0.234,1.592,0.397,2.388
		c0.163,0.796,0.367,1.643,0.612,2.54H169.352z"/>
	<path fill="#FFFFFF" d="M253.694,294.437c3.347,0,6.306,0.399,8.878,1.195s4.795,1.898,6.674,3.306
		c1.877,1.408,3.448,3.051,4.714,4.928c1.265,1.878,2.274,3.899,3.03,6.061c0.756,2.164,1.296,4.419,1.623,6.766
		c0.326,2.347,0.49,4.664,0.49,6.949v2.388c0,1.021-0.021,1.817-0.061,2.388h-43.409c0.122,3.593,0.683,6.715,1.683,9.368
		c1,2.654,2.367,4.847,4.102,6.582c1.735,1.735,3.775,3.03,6.123,3.887c2.347,0.857,4.909,1.286,7.685,1.286
		c3.959,0,7.837-0.448,11.633-1.347c3.796-0.898,7.571-2.489,11.327-4.776l1.225,10.102c-2.164,1.102-4.286,2.041-6.368,2.816
		c-2.082,0.776-4.163,1.408-6.245,1.898s-4.195,0.847-6.338,1.072c-2.143,0.224-4.398,0.336-6.765,0.336
		c-3.918,0-7.653-0.684-11.204-2.05c-3.551-1.368-6.674-3.388-9.368-6.061c-2.694-2.673-4.837-5.99-6.429-9.95
		c-1.592-3.959-2.388-8.551-2.388-13.776c0-5.061,0.683-9.642,2.05-13.745c1.368-4.102,3.317-7.613,5.848-10.531
		c2.53-2.918,5.612-5.164,9.245-6.735C245.08,295.224,249.163,294.437,253.694,294.437z M252.775,303.621
		c-4.49,0-8.164,1.317-11.021,3.95c-2.858,2.633-4.735,6.724-5.633,12.275h31.96c0-2.612-0.378-4.928-1.133-6.949
		c-0.756-2.02-1.816-3.724-3.184-5.113c-1.368-1.387-2.99-2.428-4.867-3.123C257.019,303.969,254.979,303.621,252.775,303.621z"/>
	<path fill="#FFFFFF" d="M310.625,329.03c0,1.959,0.031,4.266,0.092,6.919c0.061,2.654,0.142,5.348,0.245,8.082
		c0.102,2.736,0.224,5.348,0.367,7.837c0.142,2.491,0.315,4.572,0.52,6.245h-12.551v-69.186c0-5.958-0.102-11.357-0.306-16.194
		c-0.205-4.837-0.511-9.032-0.918-12.583h12.551V329.03z"/>
	<path fill="#FFFFFF" d="M331.883,275.763c0-1.142,0.184-2.213,0.551-3.214c0.367-1,0.888-1.877,1.562-2.633
		s1.479-1.347,2.418-1.776c0.939-0.429,1.98-0.644,3.123-0.644s2.204,0.215,3.184,0.644c0.98,0.429,1.816,1.02,2.51,1.776
		c0.694,0.756,1.245,1.632,1.653,2.633c0.408,1,0.612,2.071,0.612,3.214c0,1.144-0.205,2.215-0.612,3.215
		c-0.408,1-0.959,1.877-1.653,2.633c-0.694,0.756-1.531,1.347-2.51,1.776c-0.98,0.429-2.041,0.642-3.184,0.642
		s-2.183-0.214-3.123-0.642s-1.744-1.02-2.418-1.776s-1.195-1.632-1.562-2.633C332.066,277.978,331.883,276.907,331.883,275.763z
		 M345.352,329.03c0,1.959,0.031,4.277,0.092,6.95c0.061,2.673,0.142,5.378,0.245,8.112c0.102,2.736,0.224,5.348,0.367,7.837
		c0.142,2.491,0.315,4.552,0.52,6.184h-12.551v-32.45c0-2.979-0.01-5.918-0.03-8.817c-0.021-2.897-0.061-5.642-0.122-8.234
		s-0.154-5-0.276-7.225c-0.122-2.225-0.285-4.133-0.49-5.725h12.245V329.03z"/>
	<path fill="#FFFFFF" d="M395.326,294.437c3.347,0,6.306,0.399,8.878,1.195s4.795,1.898,6.674,3.306
		c1.877,1.408,3.448,3.051,4.714,4.928c1.265,1.878,2.274,3.899,3.03,6.061c0.756,2.164,1.296,4.419,1.623,6.766
		c0.326,2.347,0.49,4.664,0.49,6.949v2.388c0,1.021-0.021,1.817-0.061,2.388h-43.409c0.122,3.593,0.683,6.715,1.683,9.368
		c1,2.654,2.367,4.847,4.102,6.582c1.735,1.735,3.775,3.03,6.123,3.887c2.347,0.857,4.909,1.286,7.685,1.286
		c3.959,0,7.837-0.448,11.633-1.347c3.796-0.898,7.571-2.489,11.327-4.776l1.225,10.102c-2.164,1.102-4.286,2.041-6.368,2.816
		c-2.082,0.776-4.163,1.408-6.245,1.898s-4.195,0.847-6.338,1.072c-2.143,0.224-4.398,0.336-6.765,0.336
		c-3.918,0-7.653-0.684-11.204-2.05c-3.551-1.368-6.674-3.388-9.368-6.061c-2.694-2.673-4.837-5.99-6.429-9.95
		c-1.592-3.959-2.388-8.551-2.388-13.776c0-5.061,0.683-9.642,2.05-13.745c1.368-4.102,3.317-7.613,5.848-10.531
		c2.53-2.918,5.612-5.164,9.245-6.735C386.713,295.224,390.795,294.437,395.326,294.437z M394.408,303.621
		c-4.49,0-8.164,1.317-11.021,3.95c-2.858,2.633-4.735,6.724-5.633,12.275h31.96c0-2.612-0.378-4.928-1.133-6.949
		c-0.756-2.02-1.816-3.724-3.184-5.113c-1.368-1.387-2.99-2.428-4.867-3.123C398.652,303.969,396.612,303.621,394.408,303.621z"/>
	<path fill="#FFFFFF" d="M494.587,295.661c-0.857,1.756-1.746,3.654-2.663,5.694c-0.92,2.041-1.798,4.041-2.634,6
		c-0.836,1.959-1.623,3.817-2.358,5.572c-0.735,1.756-1.347,3.245-1.837,4.47c-0.409,0.98-0.948,2.317-1.621,4.011
		c-0.675,1.694-1.43,3.592-2.267,5.694c-0.836,2.103-1.725,4.326-2.663,6.674c-0.941,2.347-1.858,4.664-2.757,6.949
		c-2.162,5.388-4.468,11.185-6.917,17.388h-11.633c-2.368-5.918-4.593-11.511-6.675-16.776c-0.899-2.245-1.816-4.531-2.754-6.857
		c-0.941-2.327-1.829-4.561-2.663-6.704c-0.839-2.143-1.615-4.113-2.327-5.909c-0.716-1.795-1.318-3.285-1.808-4.47
		c-0.49-1.225-1.102-2.724-1.837-4.499c-0.735-1.776-1.531-3.644-2.388-5.603c-0.857-1.959-1.735-3.948-2.633-5.969
		c-0.898-2.02-1.776-3.908-2.633-5.664h12.859l18.673,50.206l18.675-50.206H494.587z"/>
	<g>
		<path opacity="0.39" fill="#FFFFFF" d="M626.163,310.292c0-31.982-25.927-57.909-57.909-57.909s-57.909,25.927-57.909,57.909
			c0,19.646,9.792,36.994,24.752,47.464c0.412-2.432,0.659-5.846,0.737-10.266c0.081-4.632,0.122-9.969,0.122-16.011v-43.348
			c0-2.857-0.03-5.52-0.093-7.989c-0.06-2.47-0.152-4.684-0.275-6.644c-0.122-1.959-0.306-3.551-0.551-4.776
			c2.122-0.081,4.469-0.184,7.041-0.306c2.204-0.081,4.816-0.152,7.837-0.214c3.02-0.061,6.326-0.092,9.919-0.092
			c4.776,0,9.132,0.481,13.072,1.439c3.938,0.959,7.316,2.449,10.132,4.47c2.816,2.02,5.01,4.622,6.581,7.806
			c1.571,3.184,2.358,6.98,2.358,11.388c0,3.715-0.581,7.001-1.746,9.857c-1.162,2.858-2.694,5.318-4.591,7.378
			c-1.899,2.061-4.053,3.765-6.46,5.112c-2.409,1.347-4.858,2.368-7.347,3.061c1.225,1.674,2.724,3.726,4.501,6.154
			c1.774,2.428,3.674,5,5.693,7.715c2.022,2.715,4.062,5.47,6.123,8.266s3.99,5.377,5.787,7.744
			c1.795,2.368,3.367,4.408,4.714,6.123c1.198,1.525,2.054,2.588,2.607,3.241C616.305,347.405,626.163,330.004,626.163,310.292z"/>
		<path fill="#FFFFFF" d="M535.039,358.112h0.559c-0.169-0.116-0.333-0.239-0.501-0.356C535.078,357.873,535.06,358,535.039,358.112
			z"/>
		<path fill="#FFFFFF" d="M601.469,358.112c-0.059-0.068-0.141-0.167-0.21-0.249c-0.117,0.082-0.232,0.168-0.35,0.249H601.469z"/>
		<path fill="#FFFFFF" d="M593.939,348.5c-1.796-2.367-3.726-4.949-5.787-7.744s-4.101-5.551-6.123-8.266
			c-2.019-2.715-3.918-5.286-5.693-7.715c-1.777-2.428-3.276-4.48-4.501-6.154c2.489-0.693,4.939-1.714,7.347-3.061
			c2.407-1.347,4.561-3.051,6.46-5.112c1.897-2.061,3.429-4.52,4.591-7.378c1.165-2.857,1.746-6.142,1.746-9.857
			c0-4.408-0.787-8.204-2.358-11.388c-1.571-3.184-3.765-5.785-6.581-7.806c-2.816-2.02-6.194-3.511-10.132-4.47
			c-3.941-0.959-8.297-1.439-13.072-1.439c-3.593,0-6.899,0.031-9.919,0.092c-3.021,0.061-5.633,0.133-7.837,0.214
			c-2.572,0.122-4.919,0.225-7.041,0.306c0.245,1.225,0.429,2.816,0.551,4.776c0.122,1.959,0.215,4.174,0.275,6.644
			c0.063,2.47,0.093,5.133,0.093,7.989v43.348c0,6.042-0.042,11.379-0.122,16.011c-0.078,4.42-0.326,7.834-0.737,10.266
			c0.168,0.117,0.332,0.24,0.501,0.356h12.91c-0.205-1.183-0.367-2.673-0.49-4.47c-0.122-1.795-0.214-3.836-0.276-6.123
			c-0.06-2.285-0.102-4.776-0.122-7.47c-0.021-2.694-0.03-5.551-0.03-8.572v-11.633h12.429l25.837,38.266h15.053
			c0.118-0.081,0.232-0.167,0.35-0.249c-0.553-0.653-1.408-1.716-2.607-3.241C597.306,352.908,595.734,350.868,593.939,348.5z
			 M559.223,310.356H547.59v-32.144c1.632-0.081,3.438-0.152,5.418-0.214c1.98-0.061,4.051-0.092,6.215-0.092
			c3.754,0,6.969,0.358,9.644,1.072c2.672,0.714,4.856,1.755,6.55,3.123c1.693,1.368,2.939,3.061,3.736,5.082
			c0.795,2.02,1.193,4.337,1.193,6.949c0,5.103-1.786,9.082-5.357,11.939C571.416,308.928,566.161,310.356,559.223,310.356z"/>
	</g>
</g>
</svg>
